<svg xmlns="http://www.w3.org/2000/svg" width="16" height="16" viewBox="0 0 16 16">
    <g fill="none" fill-rule="evenodd">
        <g fill="#8A92AF" fill-rule="nonzero">
            <g>
                <path d="M1.61.207l.094.083 6.253 6.201L14.21.29l.095-.083c.393-.303.96-.273 1.32.089l.082.094c.303.394.273.961-.089 1.32L9.378 7.9l.036.037-.048.048 6.258 6.31.083.095c.303.394.273.961-.089 1.32-.392.389-1.025.386-1.414-.006L7.957 9.405l-6.247 6.3c-.389.391-1.022.394-1.414.005-.362-.359-.392-.926-.089-1.32l.083-.094 6.258-6.311-.048-.048.036-.038L.296 1.71C-.066 1.351-.096.784.207.39L.29.296c.359-.362.926-.392 1.32-.089z" transform="translate(-1394.000000, -120.000000) translate(1394.000000, 120.000000)"/>
            </g>
        </g>
    </g>
</svg>
